<mxfile host="app.diagrams.net" modified="2024-01-05T10:32:45.213Z" agent="Mozilla/5.0 (Windows NT 10.0; Win64; x64) AppleWebKit/537.36 (KHTML, like Gecko) Chrome/120.0.0.0 Safari/537.36" etag="3zRX92uZImWe2WlEQb1E" version="22.1.16" type="device">
  <diagram name="Page-1" id="eKgBBj4nhSRuxqjykqHx">
    <mxGraphModel dx="989" dy="509" grid="1" gridSize="10" guides="1" tooltips="1" connect="1" arrows="1" fold="1" page="1" pageScale="1" pageWidth="850" pageHeight="1100" math="0" shadow="0">
      <root>
        <mxCell id="0" />
        <mxCell id="1" parent="0" />
        <mxCell id="4FpSmUBZ5UZKRcaTkZF2-18" value="" style="ellipse;whiteSpace=wrap;html=1;aspect=fixed;" vertex="1" parent="1">
          <mxGeometry x="660" y="245" width="70" height="70" as="geometry" />
        </mxCell>
        <mxCell id="4FpSmUBZ5UZKRcaTkZF2-7" style="edgeStyle=orthogonalEdgeStyle;rounded=0;orthogonalLoop=1;jettySize=auto;html=1;exitX=0.5;exitY=1;exitDx=0;exitDy=0;entryX=0.5;entryY=0;entryDx=0;entryDy=0;" edge="1" parent="1" source="4FpSmUBZ5UZKRcaTkZF2-3" target="4FpSmUBZ5UZKRcaTkZF2-4">
          <mxGeometry relative="1" as="geometry" />
        </mxCell>
        <mxCell id="4FpSmUBZ5UZKRcaTkZF2-3" value="" style="ellipse;whiteSpace=wrap;html=1;aspect=fixed;fillColor=#000000;" vertex="1" parent="1">
          <mxGeometry x="395" y="60" width="50" height="50" as="geometry" />
        </mxCell>
        <mxCell id="4FpSmUBZ5UZKRcaTkZF2-11" style="edgeStyle=orthogonalEdgeStyle;rounded=0;orthogonalLoop=1;jettySize=auto;html=1;entryX=0.5;entryY=0;entryDx=0;entryDy=0;" edge="1" parent="1" source="4FpSmUBZ5UZKRcaTkZF2-4" target="4FpSmUBZ5UZKRcaTkZF2-10">
          <mxGeometry relative="1" as="geometry" />
        </mxCell>
        <mxCell id="4FpSmUBZ5UZKRcaTkZF2-4" value="&lt;font style=&quot;font-size: 14px;&quot;&gt;Set Up int num;&lt;/font&gt;" style="rounded=0;whiteSpace=wrap;html=1;" vertex="1" parent="1">
          <mxGeometry x="360" y="160" width="120" height="40" as="geometry" />
        </mxCell>
        <mxCell id="4FpSmUBZ5UZKRcaTkZF2-17" style="edgeStyle=orthogonalEdgeStyle;rounded=0;orthogonalLoop=1;jettySize=auto;html=1;" edge="1" parent="1" source="4FpSmUBZ5UZKRcaTkZF2-10" target="4FpSmUBZ5UZKRcaTkZF2-18">
          <mxGeometry relative="1" as="geometry">
            <mxPoint x="650" y="280" as="targetPoint" />
          </mxGeometry>
        </mxCell>
        <mxCell id="4FpSmUBZ5UZKRcaTkZF2-19" value="true&lt;br&gt;&amp;nbsp;return num;" style="edgeLabel;html=1;align=center;verticalAlign=middle;resizable=0;points=[];" vertex="1" connectable="0" parent="4FpSmUBZ5UZKRcaTkZF2-17">
          <mxGeometry x="0.03" relative="1" as="geometry">
            <mxPoint as="offset" />
          </mxGeometry>
        </mxCell>
        <mxCell id="4FpSmUBZ5UZKRcaTkZF2-20" style="edgeStyle=orthogonalEdgeStyle;rounded=0;orthogonalLoop=1;jettySize=auto;html=1;exitX=0.5;exitY=1;exitDx=0;exitDy=0;entryX=0.5;entryY=0;entryDx=0;entryDy=0;" edge="1" parent="1" source="4FpSmUBZ5UZKRcaTkZF2-10" target="4FpSmUBZ5UZKRcaTkZF2-12">
          <mxGeometry relative="1" as="geometry" />
        </mxCell>
        <mxCell id="4FpSmUBZ5UZKRcaTkZF2-10" value="num &amp;lt;= 1" style="rhombus;whiteSpace=wrap;html=1;" vertex="1" parent="1">
          <mxGeometry x="380" y="240" width="80" height="80" as="geometry" />
        </mxCell>
        <mxCell id="4FpSmUBZ5UZKRcaTkZF2-21" style="edgeStyle=orthogonalEdgeStyle;rounded=0;orthogonalLoop=1;jettySize=auto;html=1;entryX=0.5;entryY=0;entryDx=0;entryDy=0;" edge="1" parent="1" source="4FpSmUBZ5UZKRcaTkZF2-12" target="4FpSmUBZ5UZKRcaTkZF2-15">
          <mxGeometry relative="1" as="geometry" />
        </mxCell>
        <mxCell id="4FpSmUBZ5UZKRcaTkZF2-12" value="first = 0;&lt;br&gt;seccond = 1;&lt;br&gt;next = 0;&lt;br&gt;i = 2;" style="rounded=0;whiteSpace=wrap;html=1;" vertex="1" parent="1">
          <mxGeometry x="360" y="360" width="120" height="80" as="geometry" />
        </mxCell>
        <mxCell id="4FpSmUBZ5UZKRcaTkZF2-23" style="edgeStyle=orthogonalEdgeStyle;rounded=0;orthogonalLoop=1;jettySize=auto;html=1;exitX=0.5;exitY=1;exitDx=0;exitDy=0;entryX=0.5;entryY=0;entryDx=0;entryDy=0;" edge="1" parent="1" source="4FpSmUBZ5UZKRcaTkZF2-15" target="4FpSmUBZ5UZKRcaTkZF2-22">
          <mxGeometry relative="1" as="geometry" />
        </mxCell>
        <mxCell id="4FpSmUBZ5UZKRcaTkZF2-25" style="edgeStyle=orthogonalEdgeStyle;rounded=0;orthogonalLoop=1;jettySize=auto;html=1;entryX=0.5;entryY=1;entryDx=0;entryDy=0;" edge="1" parent="1" source="4FpSmUBZ5UZKRcaTkZF2-15" target="4FpSmUBZ5UZKRcaTkZF2-18">
          <mxGeometry relative="1" as="geometry" />
        </mxCell>
        <mxCell id="4FpSmUBZ5UZKRcaTkZF2-26" value="false&lt;br&gt;return next;" style="edgeLabel;html=1;align=center;verticalAlign=middle;resizable=0;points=[];" vertex="1" connectable="0" parent="4FpSmUBZ5UZKRcaTkZF2-25">
          <mxGeometry x="-0.4577" relative="1" as="geometry">
            <mxPoint as="offset" />
          </mxGeometry>
        </mxCell>
        <mxCell id="4FpSmUBZ5UZKRcaTkZF2-15" value="i &amp;lt;= num" style="rhombus;whiteSpace=wrap;html=1;" vertex="1" parent="1">
          <mxGeometry x="380" y="480" width="80" height="80" as="geometry" />
        </mxCell>
        <mxCell id="4FpSmUBZ5UZKRcaTkZF2-24" style="edgeStyle=orthogonalEdgeStyle;rounded=0;orthogonalLoop=1;jettySize=auto;html=1;entryX=0;entryY=0.5;entryDx=0;entryDy=0;" edge="1" parent="1" source="4FpSmUBZ5UZKRcaTkZF2-22" target="4FpSmUBZ5UZKRcaTkZF2-15">
          <mxGeometry relative="1" as="geometry">
            <Array as="points">
              <mxPoint x="320" y="640" />
              <mxPoint x="320" y="520" />
            </Array>
          </mxGeometry>
        </mxCell>
        <mxCell id="4FpSmUBZ5UZKRcaTkZF2-22" value="i ++;&lt;br&gt;next = first + seccond;&lt;br&gt;first = seccond;&lt;br&gt;seccond = next;" style="rounded=0;whiteSpace=wrap;html=1;" vertex="1" parent="1">
          <mxGeometry x="350" y="600" width="140" height="80" as="geometry" />
        </mxCell>
        <mxCell id="4FpSmUBZ5UZKRcaTkZF2-27" value="" style="ellipse;whiteSpace=wrap;html=1;aspect=fixed;fillColor=#000000;" vertex="1" parent="1">
          <mxGeometry x="670" y="255" width="50" height="50" as="geometry" />
        </mxCell>
      </root>
    </mxGraphModel>
  </diagram>
</mxfile>
